<svg width="91" height="22" viewBox="0 0 91 22" fill="none" xmlns="http://www.w3.org/2000/svg">
<g id="Vector">
<path d="M21.0047 20.376C17.1823 20.376 13.7364 20.376 10.3 20.376C8.24422 20.3699 6.24697 19.6842 4.61324 18.4237C2.97951 17.1631 1.79909 15.3971 1.25227 13.3953C0.674694 11.2783 0.81513 9.02702 1.65119 7.00006C2.48726 4.9731 3.97085 3.28713 5.86556 2.21079C7.67412 1.13837 9.78536 0.706609 11.8644 0.983995C13.9435 1.26138 15.8714 2.23203 17.3423 3.742C18.8298 5.21801 19.8008 7.14339 20.1083 9.22668C20.4158 11.31 20.043 13.4377 19.0464 15.2879C18.6416 16.0297 18.1614 16.7335 17.5494 17.7226L20.8446 17.9508L21.0047 20.376ZM3.47418 10.5611C3.42853 11.5218 3.57467 12.482 3.90392 13.3846C4.23316 14.2871 4.73878 15.1134 5.39067 15.8145C6.04257 16.5156 6.82742 17.077 7.69852 17.4654C8.56962 17.8537 9.50916 18.0611 10.4612 18.0752C11.4133 18.0892 12.3584 17.9096 13.2404 17.5471C14.1223 17.1846 14.9231 16.6465 15.5949 15.965C16.2668 15.2835 16.7961 14.4723 17.1513 13.5799C17.5065 12.6875 17.6803 11.732 17.6624 10.7703C17.7093 9.81044 17.5647 8.85081 17.2373 7.94847C16.9098 7.04613 16.4061 6.21949 15.7561 5.51767C15.1062 4.81585 14.3232 4.25317 13.4537 3.86307C12.5842 3.47297 11.6459 3.2634 10.6947 3.24682C9.74343 3.23024 8.79858 3.40699 7.91628 3.76656C7.03399 4.12613 6.23224 4.66119 5.55869 5.33994C4.88514 6.0187 4.35352 6.82729 3.99543 7.71768C3.63734 8.60808 3.46008 9.5621 3.47418 10.5231V10.5611Z" fill="#233137"/>
<path d="M33.0372 20.3881C31.763 20.3884 30.5015 20.1317 29.3268 19.6332C28.152 19.1347 27.0876 18.4043 26.1958 17.4849C25.3041 16.5655 24.603 15.4755 24.1336 14.2789C23.6642 13.0822 23.4359 11.803 23.4623 10.5161C23.5667 7.96566 24.6516 5.55694 26.4864 3.80179C28.3212 2.04665 30.7612 1.08345 33.2878 1.11688C35.8145 1.15032 38.2287 2.17776 40.0173 3.98086C41.806 5.78396 42.828 8.22056 42.8663 10.7729C42.8242 13.3643 41.7652 15.8328 39.9221 17.6358C38.079 19.4388 35.6026 20.4288 33.0372 20.3881ZM40.2678 10.5541C40.2736 9.59517 40.0888 8.6448 39.7246 7.75924C39.3603 6.87368 38.8239 6.07091 38.1471 5.39845C37.4703 4.72598 36.6669 4.19747 35.7844 3.84418C34.9018 3.4909 33.9581 3.32002 33.009 3.34165C32.0599 3.36328 31.1248 3.57698 30.2589 3.97011C29.3931 4.36325 28.614 4.92782 27.968 5.63044C27.3219 6.33305 26.8219 7.15944 26.4975 8.06069C26.1732 8.96195 26.0311 9.91976 26.0796 10.8775C26.0739 11.8364 26.2586 12.7868 26.6229 13.6724C26.9871 14.5579 27.5235 15.3607 28.2003 16.0331C28.8771 16.7056 29.6805 17.2341 30.5631 17.5874C31.4456 17.9407 32.3893 18.1116 33.3384 18.0899C34.2875 18.0683 35.2226 17.8546 36.0885 17.4615C36.9544 17.0683 37.7334 16.5038 38.3795 15.8011C39.0255 15.0985 39.5255 14.2722 39.8499 13.3709C40.1742 12.4696 40.3164 11.5118 40.2678 10.5541Z" fill="#233137"/>
<path d="M65.8391 9.35483H74.4066V11.723H65.9333V17.8097H75.8283L75.9883 20.1684H63.4571V1.2613H75.3858V3.48678H65.8391V9.35483Z" fill="#233137"/>
<path d="M89.9113 2.44087L89.0358 4.22887C87.8803 3.82488 86.6972 3.50701 85.4958 3.27781C84.5762 3.16648 83.6437 3.29076 82.7843 3.63921C82.3863 3.77164 82.0347 4.01736 81.7718 4.34683C81.5088 4.67629 81.3456 5.07548 81.3018 5.4964C81.2581 5.91731 81.3356 6.34204 81.5251 6.7195C81.7146 7.09697 82.008 7.41111 82.37 7.62415C83.7736 8.47518 85.2332 9.22827 86.7385 9.87817C88.7345 10.8958 90.1749 12.3129 90.1655 14.7951C90.2439 16.1263 89.8141 17.4372 88.9647 18.458C88.1153 19.4787 86.9109 20.1318 85.5993 20.2828C84.2579 20.4944 82.8882 20.4352 81.5695 20.1087C80.2509 19.7822 79.0093 19.1949 77.9168 18.3806L78.8583 16.6782C79.0926 16.7204 79.3227 16.784 79.5456 16.8685C81.3061 17.772 83.0855 18.5804 85.138 17.9527C85.7592 17.8381 86.3303 17.5328 86.7734 17.0784C87.2165 16.6239 87.5101 16.0425 87.6141 15.4133C87.701 14.819 87.5947 14.2122 87.3112 13.684C87.0277 13.1559 86.5823 12.7348 86.0418 12.4841C84.8932 11.8183 83.6599 11.3048 82.4642 10.7341C79.3761 9.26949 78.2181 7.24373 78.943 4.60929C79.5926 2.26968 82.1911 0.728966 85.138 0.976241C85.8413 1.01858 86.5385 1.1333 87.2187 1.31862C88.0284 1.60394 88.8004 1.98437 89.9113 2.44087Z" fill="#233137"/>
<path d="M56.9996 1.25874H59.8241C57.0749 7.84959 54.4388 14.1837 51.5672 21.0979L43.3292 1.25874L46.1537 1.10657C47.9613 5.62411 49.7313 10.0656 51.6896 14.9445L56.9996 1.25874Z" fill="#233137"/>
</g>
</svg>
