<svg width="24" height="24" viewBox="0 0 24 24" fill="none" xmlns="http://www.w3.org/2000/svg">
<mask id="mask0_332_32227" style="mask-type:alpha" maskUnits="userSpaceOnUse" x="0" y="0" width="24" height="24">
<rect width="24" height="24" fill="#D9D9D9"/>
</mask>
<g mask="url(#mask0_332_32227)">
<path d="M13.7499 12.7116C13.0512 12.7116 12.4599 12.4696 11.9759 11.9856C11.492 11.5017 11.25 10.9103 11.25 10.2116C11.25 9.5129 11.492 8.92157 11.9759 8.4376C12.4599 7.95364 13.0512 7.71165 13.7499 7.71165C14.4487 7.71165 15.04 7.95364 15.524 8.4376C16.0079 8.92157 16.2499 9.5129 16.2499 10.2116C16.2499 10.9103 16.0079 11.5017 15.524 11.9856C15.04 12.4696 14.4487 12.7116 13.7499 12.7116ZM5.34614 15.8077V4.61548H22.1537V15.8077H5.34614ZM8.65379 14.3078H18.8461C18.8461 13.8091 19.0231 13.3831 19.3771 13.0299C19.7311 12.6767 20.1567 12.5001 20.6538 12.5001V7.92313C20.1551 7.92313 19.7291 7.74613 19.3759 7.39213C19.0227 7.03811 18.8461 6.61255 18.8461 6.11545H8.65379C8.65379 6.61417 8.47679 7.04013 8.12279 7.39333C7.76877 7.74653 7.34322 7.92313 6.84612 7.92313V12.5001C7.34483 12.5001 7.77079 12.6771 8.12399 13.0311C8.47719 13.3851 8.65379 13.8107 8.65379 14.3078ZM1.84619 19.3077V7.59625H3.34614V17.8077H19.173V19.3077H1.84619Z" fill="#7D828E"/>
</g>
</svg>
