<svg width="24" height="24" viewBox="0 0 24 24" fill="none" xmlns="http://www.w3.org/2000/svg">
<mask id="mask0_332_32215" style="mask-type:alpha" maskUnits="userSpaceOnUse" x="0" y="0" width="24" height="24">
<rect width="24" height="24" fill="#D9D9D9"/>
</mask>
<g mask="url(#mask0_332_32215)">
<path d="M13.9989 11.2308C14.7624 11.2308 15.4118 10.9635 15.9471 10.429C16.4823 9.89452 16.75 9.24548 16.75 8.4819C16.75 7.71833 16.4827 7.06893 15.9482 6.53368C15.4137 5.99843 14.7647 5.7308 14.0011 5.7308C13.2375 5.7308 12.5881 5.99805 12.0529 6.53255C11.5176 7.06705 11.25 7.71608 11.25 8.47965C11.25 9.24322 11.5173 9.89263 12.0518 10.4279C12.5863 10.9631 13.2353 11.2308 13.9989 11.2308ZM8.28845 15.8461C9.01922 15.0205 9.88076 14.3846 10.8731 13.9385C11.8654 13.4923 12.9077 13.2692 14 13.2692C15.0923 13.2692 16.1346 13.4923 17.1269 13.9385C18.1192 14.3846 18.9807 15.0205 19.7115 15.8461H20V3.99998H7.99998V15.8461H8.28845ZM6.5 17.5V2.5H21.5V17.5H6.5ZM2.5 21.5V6.5H3.99998V20H17.5V21.5H2.5ZM14 9.7308C13.6525 9.7308 13.3573 9.60933 13.1144 9.36638C12.8714 9.12343 12.75 8.82823 12.75 8.48078C12.75 8.13334 12.8714 7.83815 13.1144 7.5952C13.3573 7.35223 13.6525 7.23075 14 7.23075C14.3474 7.23075 14.6426 7.35223 14.8856 7.5952C15.1285 7.83815 15.25 8.13334 15.25 8.48078C15.25 8.82823 15.1285 9.12343 14.8856 9.36638C14.6426 9.60933 14.3474 9.7308 14 9.7308ZM10.3346 16H17.6654C17.1436 15.5897 16.5689 15.282 15.9413 15.0769C15.3138 14.8718 14.6666 14.7692 14 14.7692C13.3333 14.7692 12.6862 14.8718 12.0586 15.0769C11.431 15.282 10.8564 15.5897 10.3346 16Z" fill="#7D828E"/>
</g>
</svg>
